<?xml version="1.0" encoding="UTF-8" standalone="no"?>
<!-- Created with Inkscape (http://www.inkscape.org/) -->

<svg
   xmlns:dc="http://purl.org/dc/elements/1.1/"
   xmlns:cc="http://creativecommons.org/ns#"
   xmlns:rdf="http://www.w3.org/1999/02/22-rdf-syntax-ns#"
   xmlns:svg="http://www.w3.org/2000/svg"
   xmlns="http://www.w3.org/2000/svg"
   xmlns:sodipodi="http://sodipodi.sourceforge.net/DTD/sodipodi-0.dtd"
   xmlns:inkscape="http://www.inkscape.org/namespaces/inkscape"
   id="svg5487"
   version="1.1"
   inkscape:version="0.48.2 r9819"
   width="1016.25"
   height="443.75"
   xml:space="preserve"
   sodipodi:docname="Brand-Visser-HV.eps"
   inkscape:export-filename="Brand-Visser-HV.png"
   inkscape:export-xdpi="45"
   inkscape:export-ydpi="45"><metadata
     id="metadata5493"><rdf:RDF><cc:Work
         rdf:about=""><dc:format>image/svg+xml</dc:format><dc:type
           rdf:resource="http://purl.org/dc/dcmitype/StillImage" /><dc:title></dc:title></cc:Work></rdf:RDF></metadata><defs
     id="defs5491" /><sodipodi:namedview
     pagecolor="#ffffff"
     bordercolor="#666666"
     borderopacity="1"
     objecttolerance="10"
     gridtolerance="10"
     guidetolerance="10"
     inkscape:pageopacity="0"
     inkscape:pageshadow="2"
     inkscape:window-width="640"
     inkscape:window-height="480"
     id="namedview5489"
     showgrid="false" /><g
     id="g5495"
     inkscape:groupmode="layer"
     inkscape:label="ink_ext_XXXXXX"
     transform="matrix(1.25,0,0,-1.25,0,443.75)"><g
       id="g5497"
       transform="scale(0.1,0.1)"><path
         d="m 3164.88,2885.59 542.117,0 0,542.117 -542.117,0 0,-542.117 z"
         style="fill:#ffffff;fill-opacity:1;fill-rule:nonzero;stroke:none"
         id="path5499" /><path
         d="m 3164.88,3427.71 0,0 0,0"
         style="fill:#ffffff;fill-opacity:1;fill-rule:nonzero;stroke:none"
         id="path5501" /><path
         d="m 3706.99,3427.71 0,0 0,0"
         style="fill:#ffffff;fill-opacity:1;fill-rule:nonzero;stroke:none"
         id="path5503" /><path
         d="m 3164.88,2885.59 542.117,0 0,542.117 -542.117,0 0,-542.117 z"
         style="fill:#ffffff;fill-opacity:1;fill-rule:nonzero;stroke:none"
         id="path5505" /><path
         d="m 3164.88,2885.59 0,0 0,0"
         style="fill:#ffffff;fill-opacity:1;fill-rule:nonzero;stroke:none"
         id="path5507" /><path
         d="m 3706.99,2885.59 0,0 0,0"
         style="fill:#ffffff;fill-opacity:1;fill-rule:nonzero;stroke:none"
         id="path5509" /><path
         d="m 3164.88,3427.71 542.11,0"
         style="fill:none;stroke:#000000;stroke-opacity:1;stroke-width:14.173;stroke-linecap:butt;stroke-linejoin:miter;stroke-miterlimit:10;stroke-dasharray:none"
         id="path5511" /><path
         d="m 3164.88,2885.59 542.11,0"
         style="fill:none;stroke:#000000;stroke-opacity:1;stroke-width:14.173;stroke-linecap:butt;stroke-linejoin:miter;stroke-miterlimit:10;stroke-dasharray:none"
         id="path5513" /><path
         d="m 3164.88,3427.71 0,0"
         style="fill:none;stroke:#000000;stroke-opacity:1;stroke-width:14.173;stroke-linecap:butt;stroke-linejoin:miter;stroke-miterlimit:10;stroke-dasharray:none"
         id="path5515" /><path
         d="m 3706.99,3427.71 0,0"
         style="fill:none;stroke:#000000;stroke-opacity:1;stroke-width:14.173;stroke-linecap:butt;stroke-linejoin:miter;stroke-miterlimit:10;stroke-dasharray:none"
         id="path5517" /><path
         d="m 3164.88,3427.71 0,-542.12"
         style="fill:none;stroke:#000000;stroke-opacity:1;stroke-width:14.173;stroke-linecap:butt;stroke-linejoin:miter;stroke-miterlimit:10;stroke-dasharray:none"
         id="path5519" /><path
         d="m 3706.99,3427.71 0,-542.12"
         style="fill:none;stroke:#000000;stroke-opacity:1;stroke-width:14.173;stroke-linecap:butt;stroke-linejoin:miter;stroke-miterlimit:10;stroke-dasharray:none"
         id="path5521" /><path
         d="m 3164.88,2885.59 0,0"
         style="fill:none;stroke:#000000;stroke-opacity:1;stroke-width:14.173;stroke-linecap:butt;stroke-linejoin:miter;stroke-miterlimit:10;stroke-dasharray:none"
         id="path5523" /><path
         d="m 3706.99,2885.59 0,0"
         style="fill:none;stroke:#000000;stroke-opacity:1;stroke-width:14.173;stroke-linecap:butt;stroke-linejoin:miter;stroke-miterlimit:10;stroke-dasharray:none"
         id="path5525" /><g
         id="g5527"
         transform="scale(10,10)"><text
           transform="matrix(1,0,0,-1,326.5,307.161)"
           id="text5529"><tspan
             style="fill:#000000;fill-opacity:1;fill-rule:nonzero;stroke:none;font-family:Helvetica;font-variant:normal;font-weight:normal;font-size:19.8422;writing-mode:lr;-inkscape-font-specification:Helvetica"
             x="0 13.2347474 24.2670106"
             y="0"
             sodipodi:role="line"
             id="tspan5531">Box</tspan></text>
</g><path
         d="m 3789.91,2886.3 542.117,0 0,542.117 -542.117,0 0,-542.117 z"
         style="fill:#ffffff;fill-opacity:1;fill-rule:nonzero;stroke:none"
         id="path5533" /><path
         d="m 3789.91,3428.42 0,0 0,0"
         style="fill:#ffffff;fill-opacity:1;fill-rule:nonzero;stroke:none"
         id="path5535" /><path
         d="m 4332.02,3428.42 0,0 0,0"
         style="fill:#ffffff;fill-opacity:1;fill-rule:nonzero;stroke:none"
         id="path5537" /><path
         d="m 3789.91,2886.3 542.117,0 0,542.117 -542.117,0 0,-542.117 z"
         style="fill:#ffffff;fill-opacity:1;fill-rule:nonzero;stroke:none"
         id="path5539" /><path
         d="m 3789.91,2886.3 0,0 0,0"
         style="fill:#ffffff;fill-opacity:1;fill-rule:nonzero;stroke:none"
         id="path5541" /><path
         d="m 4332.02,2886.3 0,0 0,0"
         style="fill:#ffffff;fill-opacity:1;fill-rule:nonzero;stroke:none"
         id="path5543" /><path
         d="m 3789.91,3428.42 542.11,0"
         style="fill:none;stroke:#000000;stroke-opacity:1;stroke-width:14.173;stroke-linecap:butt;stroke-linejoin:miter;stroke-miterlimit:10;stroke-dasharray:none"
         id="path5545" /><path
         d="m 3789.91,2886.3 542.11,0"
         style="fill:none;stroke:#000000;stroke-opacity:1;stroke-width:14.173;stroke-linecap:butt;stroke-linejoin:miter;stroke-miterlimit:10;stroke-dasharray:none"
         id="path5547" /><path
         d="m 3789.91,3428.42 0,0"
         style="fill:none;stroke:#000000;stroke-opacity:1;stroke-width:14.173;stroke-linecap:butt;stroke-linejoin:miter;stroke-miterlimit:10;stroke-dasharray:none"
         id="path5549" /><path
         d="m 4332.02,3428.42 0,0"
         style="fill:none;stroke:#000000;stroke-opacity:1;stroke-width:14.173;stroke-linecap:butt;stroke-linejoin:miter;stroke-miterlimit:10;stroke-dasharray:none"
         id="path5551" /><path
         d="m 3789.91,3428.42 0,-542.12"
         style="fill:none;stroke:#000000;stroke-opacity:1;stroke-width:14.173;stroke-linecap:butt;stroke-linejoin:miter;stroke-miterlimit:10;stroke-dasharray:none"
         id="path5553" /><path
         d="m 4332.02,3428.42 0,-542.12"
         style="fill:none;stroke:#000000;stroke-opacity:1;stroke-width:14.173;stroke-linecap:butt;stroke-linejoin:miter;stroke-miterlimit:10;stroke-dasharray:none"
         id="path5555" /><path
         d="m 3789.91,2886.3 0,0"
         style="fill:none;stroke:#000000;stroke-opacity:1;stroke-width:14.173;stroke-linecap:butt;stroke-linejoin:miter;stroke-miterlimit:10;stroke-dasharray:none"
         id="path5557" /><path
         d="m 4332.02,2886.3 0,0"
         style="fill:none;stroke:#000000;stroke-opacity:1;stroke-width:14.173;stroke-linecap:butt;stroke-linejoin:miter;stroke-miterlimit:10;stroke-dasharray:none"
         id="path5559" /><g
         id="g5561"
         transform="scale(10,10)"><text
           transform="matrix(1,0,0,-1,389.003,307.232)"
           id="text5563"><tspan
             style="fill:#000000;fill-opacity:1;fill-rule:nonzero;stroke:none;font-family:Helvetica;font-variant:normal;font-weight:normal;font-size:19.8422;writing-mode:lr;-inkscape-font-specification:Helvetica"
             x="0 13.2347474 24.2670106"
             y="0"
             sodipodi:role="line"
             id="tspan5565">Box</tspan></text>
</g><path
         d="m 4413.52,2886.3 542.117,0 0,542.117 -542.117,0 0,-542.117 z"
         style="fill:#ffffff;fill-opacity:1;fill-rule:nonzero;stroke:none"
         id="path5567" /><path
         d="m 4413.52,3428.42 0,0 0,0"
         style="fill:#ffffff;fill-opacity:1;fill-rule:nonzero;stroke:none"
         id="path5569" /><path
         d="m 4955.64,3428.42 0,0 0,0"
         style="fill:#ffffff;fill-opacity:1;fill-rule:nonzero;stroke:none"
         id="path5571" /><path
         d="m 4413.52,2886.3 542.117,0 0,542.117 -542.117,0 0,-542.117 z"
         style="fill:#ffffff;fill-opacity:1;fill-rule:nonzero;stroke:none"
         id="path5573" /><path
         d="m 4413.52,2886.3 0,0 0,0"
         style="fill:#ffffff;fill-opacity:1;fill-rule:nonzero;stroke:none"
         id="path5575" /><path
         d="m 4955.64,2886.3 0,0 0,0"
         style="fill:#ffffff;fill-opacity:1;fill-rule:nonzero;stroke:none"
         id="path5577" /><path
         d="m 4413.52,3428.42 542.12,0"
         style="fill:none;stroke:#000000;stroke-opacity:1;stroke-width:14.173;stroke-linecap:butt;stroke-linejoin:miter;stroke-miterlimit:10;stroke-dasharray:none"
         id="path5579" /><path
         d="m 4413.52,2886.3 542.12,0"
         style="fill:none;stroke:#000000;stroke-opacity:1;stroke-width:14.173;stroke-linecap:butt;stroke-linejoin:miter;stroke-miterlimit:10;stroke-dasharray:none"
         id="path5581" /><path
         d="m 4413.52,3428.42 0,0"
         style="fill:none;stroke:#000000;stroke-opacity:1;stroke-width:14.173;stroke-linecap:butt;stroke-linejoin:miter;stroke-miterlimit:10;stroke-dasharray:none"
         id="path5583" /><path
         d="m 4955.64,3428.42 0,0"
         style="fill:none;stroke:#000000;stroke-opacity:1;stroke-width:14.173;stroke-linecap:butt;stroke-linejoin:miter;stroke-miterlimit:10;stroke-dasharray:none"
         id="path5585" /><path
         d="m 4413.52,3428.42 0,-542.12"
         style="fill:none;stroke:#000000;stroke-opacity:1;stroke-width:14.173;stroke-linecap:butt;stroke-linejoin:miter;stroke-miterlimit:10;stroke-dasharray:none"
         id="path5587" /><path
         d="m 4955.64,3428.42 0,-542.12"
         style="fill:none;stroke:#000000;stroke-opacity:1;stroke-width:14.173;stroke-linecap:butt;stroke-linejoin:miter;stroke-miterlimit:10;stroke-dasharray:none"
         id="path5589" /><path
         d="m 4413.52,2886.3 0,0"
         style="fill:none;stroke:#000000;stroke-opacity:1;stroke-width:14.173;stroke-linecap:butt;stroke-linejoin:miter;stroke-miterlimit:10;stroke-dasharray:none"
         id="path5591" /><path
         d="m 4955.64,2886.3 0,0"
         style="fill:none;stroke:#000000;stroke-opacity:1;stroke-width:14.173;stroke-linecap:butt;stroke-linejoin:miter;stroke-miterlimit:10;stroke-dasharray:none"
         id="path5593" /><g
         id="g5595"
         transform="scale(10,10)"><text
           transform="matrix(1,0,0,-1,451.364,307.232)"
           id="text5597"><tspan
             style="fill:#000000;fill-opacity:1;fill-rule:nonzero;stroke:none;font-family:Helvetica;font-variant:normal;font-weight:normal;font-size:19.8422;writing-mode:lr;-inkscape-font-specification:Helvetica"
             x="0 13.2347474 24.2670106"
             y="0"
             sodipodi:role="line"
             id="tspan5599">Box</tspan></text>
<text
           transform="matrix(1,0,0,-1,505.9269,304.50348)"
           id="text5601"><tspan
             style="fill:#000000;fill-opacity:1;fill-rule:nonzero;stroke:none;font-family:Helvetica;font-variant:normal;font-weight:normal;font-size:39.6844;writing-mode:lr;-inkscape-font-specification:Helvetica"
             x="0 11.0322632"
             y="0"
             sodipodi:role="line"
             id="tspan5603">] </tspan><tspan
             style="fill:#000000;fill-opacity:1;fill-rule:nonzero;stroke:none;font-family:Helvetica;font-variant:normal;font-weight:normal;font-size:39.6844;writing-mode:lr;-inkscape-font-specification:Helvetica"
             x="-466.454 -437.8018632 -411.3323684 -400.3001052 -378.2355788 -358.3933788 -335.2176892 -315.3754892 -304.343226 -284.501026 -264.658826 -241.4831364 -221.6409364 -210.6086732"
             y="-0.0355469"
             sodipodi:role="line"
             id="tspan5605">HV hs=x,vs=y [</tspan><tspan
             style="fill:#000000;fill-opacity:1;fill-rule:nonzero;stroke:none;font-family:Helvetica;font-variant:normal;font-weight:normal;font-size:39.6844;writing-mode:lr;-inkscape-font-specification:Helvetica"
             x="26.373"
             y="1.4171831"
             id="tspan5607">=</tspan></text>
</g><path
         d="m 582.613,2007.58 542.117,0 0,542.117 -542.117,0 0,-542.117 z"
         style="fill:#ffffff;fill-opacity:1;fill-rule:nonzero;stroke:none"
         id="path5609" /><path
         d="m 582.613,2549.7 0,0 0,0"
         style="fill:#ffffff;fill-opacity:1;fill-rule:nonzero;stroke:none"
         id="path5611" /><path
         d="m 1124.73,2549.7 0,0 0,0"
         style="fill:#ffffff;fill-opacity:1;fill-rule:nonzero;stroke:none"
         id="path5613" /><path
         d="m 582.613,2007.58 542.117,0 0,542.117 -542.117,0 0,-542.117 z"
         style="fill:#ffffff;fill-opacity:1;fill-rule:nonzero;stroke:none"
         id="path5615" /><path
         d="m 582.613,2007.58 0,0 0,0"
         style="fill:#ffffff;fill-opacity:1;fill-rule:nonzero;stroke:none"
         id="path5617" /><path
         d="m 1124.73,2007.58 0,0 0,0"
         style="fill:#ffffff;fill-opacity:1;fill-rule:nonzero;stroke:none"
         id="path5619" /><path
         d="m 582.613,2549.7 542.117,0"
         style="fill:none;stroke:#000000;stroke-opacity:1;stroke-width:14.173;stroke-linecap:butt;stroke-linejoin:miter;stroke-miterlimit:10;stroke-dasharray:none"
         id="path5621" /><path
         d="m 582.613,2007.58 542.117,0"
         style="fill:none;stroke:#000000;stroke-opacity:1;stroke-width:14.173;stroke-linecap:butt;stroke-linejoin:miter;stroke-miterlimit:10;stroke-dasharray:none"
         id="path5623" /><path
         d="m 582.613,2549.7 0,0"
         style="fill:none;stroke:#000000;stroke-opacity:1;stroke-width:14.173;stroke-linecap:butt;stroke-linejoin:miter;stroke-miterlimit:10;stroke-dasharray:none"
         id="path5625" /><path
         d="m 1124.73,2549.7 0,0"
         style="fill:none;stroke:#000000;stroke-opacity:1;stroke-width:14.173;stroke-linecap:butt;stroke-linejoin:miter;stroke-miterlimit:10;stroke-dasharray:none"
         id="path5627" /><path
         d="m 582.613,2549.7 0,-542.12"
         style="fill:none;stroke:#000000;stroke-opacity:1;stroke-width:14.173;stroke-linecap:butt;stroke-linejoin:miter;stroke-miterlimit:10;stroke-dasharray:none"
         id="path5629" /><path
         d="m 1124.73,2549.7 0,-542.12"
         style="fill:none;stroke:#000000;stroke-opacity:1;stroke-width:14.173;stroke-linecap:butt;stroke-linejoin:miter;stroke-miterlimit:10;stroke-dasharray:none"
         id="path5631" /><path
         d="m 582.613,2007.58 0,0"
         style="fill:none;stroke:#000000;stroke-opacity:1;stroke-width:14.173;stroke-linecap:butt;stroke-linejoin:miter;stroke-miterlimit:10;stroke-dasharray:none"
         id="path5633" /><path
         d="m 1124.73,2007.58 0,0"
         style="fill:none;stroke:#000000;stroke-opacity:1;stroke-width:14.173;stroke-linecap:butt;stroke-linejoin:miter;stroke-miterlimit:10;stroke-dasharray:none"
         id="path5635" /><g
         id="g5637"
         transform="scale(10,10)"><text
           transform="matrix(1,0,0,-1,68.2734,219.36)"
           id="text5639"><tspan
             style="fill:#000000;fill-opacity:1;fill-rule:nonzero;stroke:none;font-family:Helvetica;font-variant:normal;font-weight:normal;font-size:19.8422;writing-mode:lr;-inkscape-font-specification:Helvetica"
             x="0 13.2347474 24.2670106"
             y="0"
             sodipodi:role="line"
             id="tspan5641">Box</tspan></text>
</g><path
         d="m 1753.3,2008.29 542.117,0 0,542.117 -542.117,0 0,-542.117 z"
         style="fill:#ffffff;fill-opacity:1;fill-rule:nonzero;stroke:none"
         id="path5643" /><path
         d="m 1753.3,2550.4 0,0 0,0"
         style="fill:#ffffff;fill-opacity:1;fill-rule:nonzero;stroke:none"
         id="path5645" /><path
         d="m 2295.42,2550.4 0,0 0,0"
         style="fill:#ffffff;fill-opacity:1;fill-rule:nonzero;stroke:none"
         id="path5647" /><path
         d="m 1753.3,2008.29 542.117,0 0,542.117 -542.117,0 0,-542.117 z"
         style="fill:#ffffff;fill-opacity:1;fill-rule:nonzero;stroke:none"
         id="path5649" /><path
         d="m 1753.3,2008.29 0,0 0,0"
         style="fill:#ffffff;fill-opacity:1;fill-rule:nonzero;stroke:none"
         id="path5651" /><path
         d="m 2295.42,2008.29 0,0 0,0"
         style="fill:#ffffff;fill-opacity:1;fill-rule:nonzero;stroke:none"
         id="path5653" /><path
         d="m 1753.3,2550.4 542.12,0"
         style="fill:none;stroke:#000000;stroke-opacity:1;stroke-width:14.173;stroke-linecap:butt;stroke-linejoin:miter;stroke-miterlimit:10;stroke-dasharray:none"
         id="path5655" /><path
         d="m 1753.3,2008.29 542.12,0"
         style="fill:none;stroke:#000000;stroke-opacity:1;stroke-width:14.173;stroke-linecap:butt;stroke-linejoin:miter;stroke-miterlimit:10;stroke-dasharray:none"
         id="path5657" /><path
         d="m 1753.3,2550.4 0,0"
         style="fill:none;stroke:#000000;stroke-opacity:1;stroke-width:14.173;stroke-linecap:butt;stroke-linejoin:miter;stroke-miterlimit:10;stroke-dasharray:none"
         id="path5659" /><path
         d="m 2295.42,2550.4 0,0"
         style="fill:none;stroke:#000000;stroke-opacity:1;stroke-width:14.173;stroke-linecap:butt;stroke-linejoin:miter;stroke-miterlimit:10;stroke-dasharray:none"
         id="path5661" /><path
         d="m 1753.3,2550.4 0,-542.11"
         style="fill:none;stroke:#000000;stroke-opacity:1;stroke-width:14.173;stroke-linecap:butt;stroke-linejoin:miter;stroke-miterlimit:10;stroke-dasharray:none"
         id="path5663" /><path
         d="m 2295.42,2550.4 0,-542.11"
         style="fill:none;stroke:#000000;stroke-opacity:1;stroke-width:14.173;stroke-linecap:butt;stroke-linejoin:miter;stroke-miterlimit:10;stroke-dasharray:none"
         id="path5665" /><path
         d="m 1753.3,2008.29 0,0"
         style="fill:none;stroke:#000000;stroke-opacity:1;stroke-width:14.173;stroke-linecap:butt;stroke-linejoin:miter;stroke-miterlimit:10;stroke-dasharray:none"
         id="path5667" /><path
         d="m 2295.42,2008.29 0,0"
         style="fill:none;stroke:#000000;stroke-opacity:1;stroke-width:14.173;stroke-linecap:butt;stroke-linejoin:miter;stroke-miterlimit:10;stroke-dasharray:none"
         id="path5669" /><g
         id="g5671"
         transform="scale(10,10)"><text
           transform="matrix(1,0,0,-1,185.342,219.43)"
           id="text5673"><tspan
             style="fill:#000000;fill-opacity:1;fill-rule:nonzero;stroke:none;font-family:Helvetica;font-variant:normal;font-weight:normal;font-size:19.8422;writing-mode:lr;-inkscape-font-specification:Helvetica"
             x="0 13.2347474 24.2670106"
             y="0"
             sodipodi:role="line"
             id="tspan5675">Box</tspan></text>
</g><path
         d="m 1280.63,2278.81 316.77,0.36"
         style="fill:none;stroke:#000000;stroke-opacity:1;stroke-width:28.346;stroke-linecap:butt;stroke-linejoin:miter;stroke-miterlimit:10;stroke-dasharray:none"
         id="path5677" /><path
         d="m 1280.55,2349.68 -141.65,-71.03 141.81,-70.7"
         style="fill:#000000;fill-opacity:1;fill-rule:evenodd;stroke:none"
         id="path5679" /><path
         d="m 1597.48,2208.3 141.65,71.03 -141.81,70.71"
         style="fill:#000000;fill-opacity:1;fill-rule:evenodd;stroke:none"
         id="path5681" /><g
         id="g5683"
         transform="scale(10,10)"><text
           transform="matrix(1,0,0,-1,135.828,232.93)"
           id="text5685"><tspan
             style="fill:#000000;fill-opacity:1;fill-rule:nonzero;stroke:none;font-family:Helvetica;font-variant:normal;font-weight:normal;font-size:15.8738;writing-mode:lr;-inkscape-font-specification:Helvetica"
             x="0 8.8258328"
             y="0"
             sodipodi:role="line"
             id="tspan5687">hs</tspan></text>
</g><path
         d="m 2926.83,2008.29 542.117,0 0,542.117 -542.117,0 0,-542.117 z"
         style="fill:#ffffff;fill-opacity:1;fill-rule:nonzero;stroke:none"
         id="path5689" /><path
         d="m 2926.83,2550.4 0,0 0,0"
         style="fill:#ffffff;fill-opacity:1;fill-rule:nonzero;stroke:none"
         id="path5691" /><path
         d="m 3468.95,2550.4 0,0 0,0"
         style="fill:#ffffff;fill-opacity:1;fill-rule:nonzero;stroke:none"
         id="path5693" /><path
         d="m 2926.83,2008.29 542.117,0 0,542.117 -542.117,0 0,-542.117 z"
         style="fill:#ffffff;fill-opacity:1;fill-rule:nonzero;stroke:none"
         id="path5695" /><path
         d="m 2926.83,2008.29 0,0 0,0"
         style="fill:#ffffff;fill-opacity:1;fill-rule:nonzero;stroke:none"
         id="path5697" /><path
         d="m 3468.95,2008.29 0,0 0,0"
         style="fill:#ffffff;fill-opacity:1;fill-rule:nonzero;stroke:none"
         id="path5699" /><path
         d="m 2926.83,2550.4 542.12,0"
         style="fill:none;stroke:#000000;stroke-opacity:1;stroke-width:14.173;stroke-linecap:butt;stroke-linejoin:miter;stroke-miterlimit:10;stroke-dasharray:none"
         id="path5701" /><path
         d="m 2926.83,2008.29 542.12,0"
         style="fill:none;stroke:#000000;stroke-opacity:1;stroke-width:14.173;stroke-linecap:butt;stroke-linejoin:miter;stroke-miterlimit:10;stroke-dasharray:none"
         id="path5703" /><path
         d="m 2926.83,2550.4 0,0"
         style="fill:none;stroke:#000000;stroke-opacity:1;stroke-width:14.173;stroke-linecap:butt;stroke-linejoin:miter;stroke-miterlimit:10;stroke-dasharray:none"
         id="path5705" /><path
         d="m 3468.95,2550.4 0,0"
         style="fill:none;stroke:#000000;stroke-opacity:1;stroke-width:14.173;stroke-linecap:butt;stroke-linejoin:miter;stroke-miterlimit:10;stroke-dasharray:none"
         id="path5707" /><path
         d="m 2926.83,2550.4 0,-542.11"
         style="fill:none;stroke:#000000;stroke-opacity:1;stroke-width:14.173;stroke-linecap:butt;stroke-linejoin:miter;stroke-miterlimit:10;stroke-dasharray:none"
         id="path5709" /><path
         d="m 3468.95,2550.4 0,-542.11"
         style="fill:none;stroke:#000000;stroke-opacity:1;stroke-width:14.173;stroke-linecap:butt;stroke-linejoin:miter;stroke-miterlimit:10;stroke-dasharray:none"
         id="path5711" /><path
         d="m 2926.83,2008.29 0,0"
         style="fill:none;stroke:#000000;stroke-opacity:1;stroke-width:14.173;stroke-linecap:butt;stroke-linejoin:miter;stroke-miterlimit:10;stroke-dasharray:none"
         id="path5713" /><path
         d="m 3468.95,2008.29 0,0"
         style="fill:none;stroke:#000000;stroke-opacity:1;stroke-width:14.173;stroke-linecap:butt;stroke-linejoin:miter;stroke-miterlimit:10;stroke-dasharray:none"
         id="path5715" /><g
         id="g5717"
         transform="scale(10,10)"><text
           transform="matrix(1,0,0,-1,302.695,219.43)"
           id="text5719"><tspan
             style="fill:#000000;fill-opacity:1;fill-rule:nonzero;stroke:none;font-family:Helvetica;font-variant:normal;font-weight:normal;font-size:19.8422;writing-mode:lr;-inkscape-font-specification:Helvetica"
             x="0 13.2347474 24.2670106"
             y="0"
             sodipodi:role="line"
             id="tspan5721">Box</tspan></text>
</g><path
         d="m 2451.32,2279.34 319.6,0"
         style="fill:none;stroke:#000000;stroke-opacity:1;stroke-width:28.346;stroke-linecap:butt;stroke-linejoin:miter;stroke-miterlimit:10;stroke-dasharray:none"
         id="path5723" /><path
         d="m 2451.32,2350.21 -141.73,-70.87 141.73,-70.86"
         style="fill:#000000;fill-opacity:1;fill-rule:evenodd;stroke:none"
         id="path5725" /><path
         d="m 2770.92,2208.48 141.73,70.86 -141.73,70.87"
         style="fill:#000000;fill-opacity:1;fill-rule:evenodd;stroke:none"
         id="path5727" /><g
         id="g5729"
         transform="scale(10,10)"><text
           transform="matrix(1,0,0,-1,253.464,232.93)"
           id="text5731"><tspan
             style="fill:#000000;fill-opacity:1;fill-rule:nonzero;stroke:none;font-family:Helvetica;font-variant:normal;font-weight:normal;font-size:15.8738;writing-mode:lr;-inkscape-font-specification:Helvetica"
             x="0 8.8258328"
             y="0"
             sodipodi:role="line"
             id="tspan5733">hs</tspan></text>
</g><path
         d="m 4632.78,2008.29 542.117,0 0,542.117 -542.117,0 0,-542.117 z"
         style="fill:#ffffff;fill-opacity:1;fill-rule:nonzero;stroke:none"
         id="path5735" /><path
         d="m 4632.78,2550.4 0,0 0,0"
         style="fill:#ffffff;fill-opacity:1;fill-rule:nonzero;stroke:none"
         id="path5737" /><path
         d="m 5174.9,2550.4 0,0 0,0"
         style="fill:#ffffff;fill-opacity:1;fill-rule:nonzero;stroke:none"
         id="path5739" /><path
         d="m 4632.78,2008.29 542.117,0 0,542.117 -542.117,0 0,-542.117 z"
         style="fill:#ffffff;fill-opacity:1;fill-rule:nonzero;stroke:none"
         id="path5741" /><path
         d="m 4632.78,2008.29 0,0 0,0"
         style="fill:#ffffff;fill-opacity:1;fill-rule:nonzero;stroke:none"
         id="path5743" /><path
         d="m 5174.9,2008.29 0,0 0,0"
         style="fill:#ffffff;fill-opacity:1;fill-rule:nonzero;stroke:none"
         id="path5745" /><path
         d="m 4632.78,2550.4 542.12,0"
         style="fill:none;stroke:#000000;stroke-opacity:1;stroke-width:14.173;stroke-linecap:butt;stroke-linejoin:miter;stroke-miterlimit:10;stroke-dasharray:none"
         id="path5747" /><path
         d="m 4632.78,2008.29 542.12,0"
         style="fill:none;stroke:#000000;stroke-opacity:1;stroke-width:14.173;stroke-linecap:butt;stroke-linejoin:miter;stroke-miterlimit:10;stroke-dasharray:none"
         id="path5749" /><path
         d="m 4632.78,2550.4 0,0"
         style="fill:none;stroke:#000000;stroke-opacity:1;stroke-width:14.173;stroke-linecap:butt;stroke-linejoin:miter;stroke-miterlimit:10;stroke-dasharray:none"
         id="path5751" /><path
         d="m 5174.9,2550.4 0,0"
         style="fill:none;stroke:#000000;stroke-opacity:1;stroke-width:14.173;stroke-linecap:butt;stroke-linejoin:miter;stroke-miterlimit:10;stroke-dasharray:none"
         id="path5753" /><path
         d="m 4632.78,2550.4 0,-542.11"
         style="fill:none;stroke:#000000;stroke-opacity:1;stroke-width:14.173;stroke-linecap:butt;stroke-linejoin:miter;stroke-miterlimit:10;stroke-dasharray:none"
         id="path5755" /><path
         d="m 5174.9,2550.4 0,-542.11"
         style="fill:none;stroke:#000000;stroke-opacity:1;stroke-width:14.173;stroke-linecap:butt;stroke-linejoin:miter;stroke-miterlimit:10;stroke-dasharray:none"
         id="path5757" /><path
         d="m 4632.78,2008.29 0,0"
         style="fill:none;stroke:#000000;stroke-opacity:1;stroke-width:14.173;stroke-linecap:butt;stroke-linejoin:miter;stroke-miterlimit:10;stroke-dasharray:none"
         id="path5759" /><path
         d="m 5174.9,2008.29 0,0"
         style="fill:none;stroke:#000000;stroke-opacity:1;stroke-width:14.173;stroke-linecap:butt;stroke-linejoin:miter;stroke-miterlimit:10;stroke-dasharray:none"
         id="path5761" /><g
         id="g5763"
         transform="scale(10,10)"><text
           transform="matrix(1,0,0,-1,473.29,219.43)"
           id="text5765"><tspan
             style="fill:#000000;fill-opacity:1;fill-rule:nonzero;stroke:none;font-family:Helvetica;font-variant:normal;font-weight:normal;font-size:19.8422;writing-mode:lr;-inkscape-font-specification:Helvetica"
             x="0 13.2347474 24.2670106"
             y="0"
             sodipodi:role="line"
             id="tspan5767">Box</tspan></text>
</g><path
         d="m 4631.36,1009.8 542.117,0 0,542.117 -542.117,0 0,-542.117 z"
         style="fill:#ffffff;fill-opacity:1;fill-rule:nonzero;stroke:none"
         id="path5769" /><path
         d="m 4631.36,1551.91 0,0 0,0"
         style="fill:#ffffff;fill-opacity:1;fill-rule:nonzero;stroke:none"
         id="path5771" /><path
         d="m 5173.47,1551.91 0.01,0 0,0"
         style="fill:#ffffff;fill-opacity:1;fill-rule:nonzero;stroke:none"
         id="path5773" /><path
         d="m 4631.36,1009.8 542.117,0 0,542.117 -542.117,0 0,-542.117 z"
         style="fill:#ffffff;fill-opacity:1;fill-rule:nonzero;stroke:none"
         id="path5775" /><path
         d="m 4631.36,1009.8 0,0 0,0"
         style="fill:#ffffff;fill-opacity:1;fill-rule:nonzero;stroke:none"
         id="path5777" /><path
         d="m 5173.47,1009.8 0.01,0 0,0"
         style="fill:#ffffff;fill-opacity:1;fill-rule:nonzero;stroke:none"
         id="path5779" /><path
         d="m 4631.36,1551.91 542.11,0"
         style="fill:none;stroke:#000000;stroke-opacity:1;stroke-width:14.173;stroke-linecap:butt;stroke-linejoin:miter;stroke-miterlimit:10;stroke-dasharray:none"
         id="path5781" /><path
         d="m 4631.36,1009.8 542.11,0"
         style="fill:none;stroke:#000000;stroke-opacity:1;stroke-width:14.173;stroke-linecap:butt;stroke-linejoin:miter;stroke-miterlimit:10;stroke-dasharray:none"
         id="path5783" /><path
         d="m 4631.36,1551.91 0,0"
         style="fill:none;stroke:#000000;stroke-opacity:1;stroke-width:14.173;stroke-linecap:butt;stroke-linejoin:miter;stroke-miterlimit:10;stroke-dasharray:none"
         id="path5785" /><path
         d="m 5173.48,1551.91 0,0"
         style="fill:none;stroke:#000000;stroke-opacity:1;stroke-width:14.173;stroke-linecap:butt;stroke-linejoin:miter;stroke-miterlimit:10;stroke-dasharray:none"
         id="path5787" /><path
         d="m 4631.36,1551.91 0,-542.11"
         style="fill:none;stroke:#000000;stroke-opacity:1;stroke-width:14.173;stroke-linecap:butt;stroke-linejoin:miter;stroke-miterlimit:10;stroke-dasharray:none"
         id="path5789" /><path
         d="m 5173.47,1551.91 0,-542.11"
         style="fill:none;stroke:#000000;stroke-opacity:1;stroke-width:14.173;stroke-linecap:butt;stroke-linejoin:miter;stroke-miterlimit:10;stroke-dasharray:none"
         id="path5791" /><path
         d="m 4631.36,1009.8 0,0"
         style="fill:none;stroke:#000000;stroke-opacity:1;stroke-width:14.173;stroke-linecap:butt;stroke-linejoin:miter;stroke-miterlimit:10;stroke-dasharray:none"
         id="path5793" /><path
         d="m 5173.48,1009.8 0,0"
         style="fill:none;stroke:#000000;stroke-opacity:1;stroke-width:14.173;stroke-linecap:butt;stroke-linejoin:miter;stroke-miterlimit:10;stroke-dasharray:none"
         id="path5795" /><g
         id="g5797"
         transform="scale(10,10)"><text
           transform="matrix(1,0,0,-1,473.148,119.582)"
           id="text5799"><tspan
             style="fill:#000000;fill-opacity:1;fill-rule:nonzero;stroke:none;font-family:Helvetica;font-variant:normal;font-weight:normal;font-size:19.8422;writing-mode:lr;-inkscape-font-specification:Helvetica"
             x="0 13.2347474 24.2670106"
             y="0"
             sodipodi:role="line"
             id="tspan5801">Box</tspan></text>
</g><path
         d="m 4902.9,1707.82 0.46,144.56"
         style="fill:none;stroke:#000000;stroke-opacity:1;stroke-width:28.346;stroke-linecap:butt;stroke-linejoin:miter;stroke-miterlimit:10;stroke-dasharray:none"
         id="path5803" /><path
         d="m 4832.04,1708.04 70.42,-141.95 71.31,141.51"
         style="fill:#000000;fill-opacity:1;fill-rule:evenodd;stroke:none"
         id="path5805" /><path
         d="m 4974.22,1852.16 -70.42,141.95 -71.31,-141.5"
         style="fill:#000000;fill-opacity:1;fill-rule:evenodd;stroke:none"
         id="path5807" /><g
         id="g5809"
         transform="scale(10,10)"><text
           transform="matrix(1,0,0,-1,497.352,172.766)"
           id="text5811"><tspan
             style="fill:#000000;fill-opacity:1;fill-rule:nonzero;stroke:none;font-family:Helvetica;font-variant:normal;font-weight:normal;font-size:15.8738;writing-mode:lr;-inkscape-font-specification:Helvetica"
             x="0 7.9369"
             y="0"
             sodipodi:role="line"
             id="tspan5813">vs</tspan></text>
</g><path
         d="m 5793.91,2008.29 542.117,0 0,542.117 -542.117,0 0,-542.117 z"
         style="fill:#ffffff;fill-opacity:1;fill-rule:nonzero;stroke:none"
         id="path5815" /><path
         d="m 5793.91,2550.4 0,0 0,0"
         style="fill:#ffffff;fill-opacity:1;fill-rule:nonzero;stroke:none"
         id="path5817" /><path
         d="m 6336.03,2550.4 0,0 0,0"
         style="fill:#ffffff;fill-opacity:1;fill-rule:nonzero;stroke:none"
         id="path5819" /><path
         d="m 5793.91,2008.29 542.117,0 0,542.117 -542.117,0 0,-542.117 z"
         style="fill:#ffffff;fill-opacity:1;fill-rule:nonzero;stroke:none"
         id="path5821" /><path
         d="m 5793.91,2008.29 0,0 0,0"
         style="fill:#ffffff;fill-opacity:1;fill-rule:nonzero;stroke:none"
         id="path5823" /><path
         d="m 6336.03,2008.29 0,0 0,0"
         style="fill:#ffffff;fill-opacity:1;fill-rule:nonzero;stroke:none"
         id="path5825" /><path
         d="m 5793.91,2550.4 542.12,0"
         style="fill:none;stroke:#000000;stroke-opacity:1;stroke-width:14.173;stroke-linecap:butt;stroke-linejoin:miter;stroke-miterlimit:10;stroke-dasharray:none"
         id="path5827" /><path
         d="m 5793.91,2008.29 542.12,0"
         style="fill:none;stroke:#000000;stroke-opacity:1;stroke-width:14.173;stroke-linecap:butt;stroke-linejoin:miter;stroke-miterlimit:10;stroke-dasharray:none"
         id="path5829" /><path
         d="m 5793.91,2550.4 0,0"
         style="fill:none;stroke:#000000;stroke-opacity:1;stroke-width:14.173;stroke-linecap:butt;stroke-linejoin:miter;stroke-miterlimit:10;stroke-dasharray:none"
         id="path5831" /><path
         d="m 6336.03,2550.4 0,0"
         style="fill:none;stroke:#000000;stroke-opacity:1;stroke-width:14.173;stroke-linecap:butt;stroke-linejoin:miter;stroke-miterlimit:10;stroke-dasharray:none"
         id="path5833" /><path
         d="m 5793.91,2550.4 0,-542.11"
         style="fill:none;stroke:#000000;stroke-opacity:1;stroke-width:14.173;stroke-linecap:butt;stroke-linejoin:miter;stroke-miterlimit:10;stroke-dasharray:none"
         id="path5835" /><path
         d="m 6336.03,2550.4 0,-542.11"
         style="fill:none;stroke:#000000;stroke-opacity:1;stroke-width:14.173;stroke-linecap:butt;stroke-linejoin:miter;stroke-miterlimit:10;stroke-dasharray:none"
         id="path5837" /><path
         d="m 5793.91,2008.29 0,0"
         style="fill:none;stroke:#000000;stroke-opacity:1;stroke-width:14.173;stroke-linecap:butt;stroke-linejoin:miter;stroke-miterlimit:10;stroke-dasharray:none"
         id="path5839" /><path
         d="m 6336.03,2008.29 0,0"
         style="fill:none;stroke:#000000;stroke-opacity:1;stroke-width:14.173;stroke-linecap:butt;stroke-linejoin:miter;stroke-miterlimit:10;stroke-dasharray:none"
         id="path5841" /><g
         id="g5843"
         transform="scale(10,10)"><text
           transform="matrix(1,0,0,-1,589.405,219.43)"
           id="text5845"><tspan
             style="fill:#000000;fill-opacity:1;fill-rule:nonzero;stroke:none;font-family:Helvetica;font-variant:normal;font-weight:normal;font-size:19.8422;writing-mode:lr;-inkscape-font-specification:Helvetica"
             x="0 13.2347474 24.2670106"
             y="0"
             sodipodi:role="line"
             id="tspan5847">Box</tspan></text>
</g><path
         d="m 5330.79,2279.34 307.22,0"
         style="fill:none;stroke:#000000;stroke-opacity:1;stroke-width:28.346;stroke-linecap:butt;stroke-linejoin:miter;stroke-miterlimit:10;stroke-dasharray:none"
         id="path5849" /><path
         d="m 5330.79,2350.21 -141.72,-70.87 141.72,-70.86"
         style="fill:#000000;fill-opacity:1;fill-rule:evenodd;stroke:none"
         id="path5851" /><path
         d="m 5638.01,2208.48 141.73,70.86 -141.73,70.87"
         style="fill:#000000;fill-opacity:1;fill-rule:evenodd;stroke:none"
         id="path5853" /><g
         id="g5855"
         transform="scale(10,10)"><text
           transform="matrix(1,0,0,-1,540.172,234.348)"
           id="text5857"><tspan
             style="fill:#000000;fill-opacity:1;fill-rule:nonzero;stroke:none;font-family:Helvetica;font-variant:normal;font-weight:normal;font-size:15.8738;writing-mode:lr;-inkscape-font-specification:Helvetica"
             x="0 8.8258328"
             y="0"
             sodipodi:role="line"
             id="tspan5859">hs</tspan></text>
<text
           transform="matrix(1,0,0,-1,387.354,200.3328)"
           id="text5861"><tspan
             style="fill:#000000;fill-opacity:1;fill-rule:nonzero;stroke:none;font-family:Helvetica;font-variant:normal;font-weight:normal;font-size:39.6844;writing-mode:lr;-inkscape-font-specification:Helvetica"
             x="0 22.0645264"
             y="0"
             sodipodi:role="line"
             id="tspan5863">or</tspan><tspan
             style="fill:#000000;fill-opacity:1;fill-rule:nonzero;stroke:none;font-family:Helvetica;font-variant:normal;font-weight:normal;font-size:39.6844;writing-mode:lr;-inkscape-font-specification:Helvetica"
             x="287.711 309.7755264"
             y="-0.141797"
             sodipodi:role="line"
             id="tspan5865">or</tspan></text>
</g><path
         d="m 7572.79,2010.94 542.117,0 0,542.117 -542.117,0 0,-542.117 z"
         style="fill:#ffffff;fill-opacity:1;fill-rule:nonzero;stroke:none"
         id="path5867" /><path
         d="m 7572.79,2553.06 0,0 0,0"
         style="fill:#ffffff;fill-opacity:1;fill-rule:nonzero;stroke:none"
         id="path5869" /><path
         d="m 8114.91,2553.06 0,0 0,0"
         style="fill:#ffffff;fill-opacity:1;fill-rule:nonzero;stroke:none"
         id="path5871" /><path
         d="m 7572.79,2010.94 542.117,0 0,542.117 -542.117,0 0,-542.117 z"
         style="fill:#ffffff;fill-opacity:1;fill-rule:nonzero;stroke:none"
         id="path5873" /><path
         d="m 7572.79,2010.94 0,0 0,0"
         style="fill:#ffffff;fill-opacity:1;fill-rule:nonzero;stroke:none"
         id="path5875" /><path
         d="m 8114.91,2010.94 0,0 0,0"
         style="fill:#ffffff;fill-opacity:1;fill-rule:nonzero;stroke:none"
         id="path5877" /><path
         d="m 7572.79,2553.06 542.12,0"
         style="fill:none;stroke:#000000;stroke-opacity:1;stroke-width:14.173;stroke-linecap:butt;stroke-linejoin:miter;stroke-miterlimit:10;stroke-dasharray:none"
         id="path5879" /><path
         d="m 7572.79,2010.94 542.12,0"
         style="fill:none;stroke:#000000;stroke-opacity:1;stroke-width:14.173;stroke-linecap:butt;stroke-linejoin:miter;stroke-miterlimit:10;stroke-dasharray:none"
         id="path5881" /><path
         d="m 7572.79,2553.06 0,0"
         style="fill:none;stroke:#000000;stroke-opacity:1;stroke-width:14.173;stroke-linecap:butt;stroke-linejoin:miter;stroke-miterlimit:10;stroke-dasharray:none"
         id="path5883" /><path
         d="m 8114.91,2553.06 0,0"
         style="fill:none;stroke:#000000;stroke-opacity:1;stroke-width:14.173;stroke-linecap:butt;stroke-linejoin:miter;stroke-miterlimit:10;stroke-dasharray:none"
         id="path5885" /><path
         d="m 7572.79,2553.06 0,-542.12"
         style="fill:none;stroke:#000000;stroke-opacity:1;stroke-width:14.173;stroke-linecap:butt;stroke-linejoin:miter;stroke-miterlimit:10;stroke-dasharray:none"
         id="path5887" /><path
         d="m 8114.91,2553.06 0,-542.12"
         style="fill:none;stroke:#000000;stroke-opacity:1;stroke-width:14.173;stroke-linecap:butt;stroke-linejoin:miter;stroke-miterlimit:10;stroke-dasharray:none"
         id="path5889" /><path
         d="m 7572.79,2010.94 0,0"
         style="fill:none;stroke:#000000;stroke-opacity:1;stroke-width:14.173;stroke-linecap:butt;stroke-linejoin:miter;stroke-miterlimit:10;stroke-dasharray:none"
         id="path5891" /><path
         d="m 8114.91,2010.94 0,0"
         style="fill:none;stroke:#000000;stroke-opacity:1;stroke-width:14.173;stroke-linecap:butt;stroke-linejoin:miter;stroke-miterlimit:10;stroke-dasharray:none"
         id="path5893" /><g
         id="g5895"
         transform="scale(10,10)"><text
           transform="matrix(1,0,0,-1,767.293,219.696)"
           id="text5897"><tspan
             style="fill:#000000;fill-opacity:1;fill-rule:nonzero;stroke:none;font-family:Helvetica;font-variant:normal;font-weight:normal;font-size:19.8422;writing-mode:lr;-inkscape-font-specification:Helvetica"
             x="0 13.2347474 24.2670106"
             y="0"
             sodipodi:role="line"
             id="tspan5899">Box</tspan></text>
</g><path
         d="m 7571.38,1012.46 542.117,0 0,542.117 -542.117,0 0,-542.117 z"
         style="fill:#ffffff;fill-opacity:1;fill-rule:nonzero;stroke:none"
         id="path5901" /><path
         d="m 7571.38,1554.58 0,0 0,0"
         style="fill:#ffffff;fill-opacity:1;fill-rule:nonzero;stroke:none"
         id="path5903" /><path
         d="m 8113.49,1554.58 0,0 0,0"
         style="fill:#ffffff;fill-opacity:1;fill-rule:nonzero;stroke:none"
         id="path5905" /><path
         d="m 7571.38,1012.46 542.117,0 0,542.117 -542.117,0 0,-542.117 z"
         style="fill:#ffffff;fill-opacity:1;fill-rule:nonzero;stroke:none"
         id="path5907" /><path
         d="m 7571.38,1012.46 0,0 0,0"
         style="fill:#ffffff;fill-opacity:1;fill-rule:nonzero;stroke:none"
         id="path5909" /><path
         d="m 8113.49,1012.46 0,0 0,0"
         style="fill:#ffffff;fill-opacity:1;fill-rule:nonzero;stroke:none"
         id="path5911" /><path
         d="m 7571.38,1554.58 542.11,0"
         style="fill:none;stroke:#000000;stroke-opacity:1;stroke-width:14.173;stroke-linecap:butt;stroke-linejoin:miter;stroke-miterlimit:10;stroke-dasharray:none"
         id="path5913" /><path
         d="m 7571.38,1012.46 542.11,0"
         style="fill:none;stroke:#000000;stroke-opacity:1;stroke-width:14.173;stroke-linecap:butt;stroke-linejoin:miter;stroke-miterlimit:10;stroke-dasharray:none"
         id="path5915" /><path
         d="m 7571.38,1554.58 0,0"
         style="fill:none;stroke:#000000;stroke-opacity:1;stroke-width:14.173;stroke-linecap:butt;stroke-linejoin:miter;stroke-miterlimit:10;stroke-dasharray:none"
         id="path5917" /><path
         d="m 8113.49,1554.58 0,0"
         style="fill:none;stroke:#000000;stroke-opacity:1;stroke-width:14.173;stroke-linecap:butt;stroke-linejoin:miter;stroke-miterlimit:10;stroke-dasharray:none"
         id="path5919" /><path
         d="m 7571.38,1554.58 0,-542.12"
         style="fill:none;stroke:#000000;stroke-opacity:1;stroke-width:14.173;stroke-linecap:butt;stroke-linejoin:miter;stroke-miterlimit:10;stroke-dasharray:none"
         id="path5921" /><path
         d="m 8113.49,1554.58 0,-542.12"
         style="fill:none;stroke:#000000;stroke-opacity:1;stroke-width:14.173;stroke-linecap:butt;stroke-linejoin:miter;stroke-miterlimit:10;stroke-dasharray:none"
         id="path5923" /><path
         d="m 7571.38,1012.46 0,0"
         style="fill:none;stroke:#000000;stroke-opacity:1;stroke-width:14.173;stroke-linecap:butt;stroke-linejoin:miter;stroke-miterlimit:10;stroke-dasharray:none"
         id="path5925" /><path
         d="m 8113.49,1012.46 0,0"
         style="fill:none;stroke:#000000;stroke-opacity:1;stroke-width:14.173;stroke-linecap:butt;stroke-linejoin:miter;stroke-miterlimit:10;stroke-dasharray:none"
         id="path5927" /><g
         id="g5929"
         transform="scale(10,10)"><text
           transform="matrix(1,0,0,-1,767.15,120.238)"
           id="text5931"><tspan
             style="fill:#000000;fill-opacity:1;fill-rule:nonzero;stroke:none;font-family:Helvetica;font-variant:normal;font-weight:normal;font-size:19.8422;writing-mode:lr;-inkscape-font-specification:Helvetica"
             x="0 13.2347474 24.2670106"
             y="0"
             sodipodi:role="line"
             id="tspan5933">Box</tspan></text>
</g><path
         d="m 7842.92,1710.48 0.45,144.56"
         style="fill:none;stroke:#000000;stroke-opacity:1;stroke-width:28.346;stroke-linecap:butt;stroke-linejoin:miter;stroke-miterlimit:10;stroke-dasharray:none"
         id="path5935" /><path
         d="m 7772.05,1710.7 70.43,-141.95 71.31,141.51"
         style="fill:#000000;fill-opacity:1;fill-rule:evenodd;stroke:none"
         id="path5937" /><path
         d="m 7914.23,1854.82 -70.42,141.95 -71.31,-141.51"
         style="fill:#000000;fill-opacity:1;fill-rule:evenodd;stroke:none"
         id="path5939" /><g
         id="g5941"
         transform="scale(10,10)"><text
           transform="matrix(1,0,0,-1,791.354,173.032)"
           id="text5943"><tspan
             style="fill:#000000;fill-opacity:1;fill-rule:nonzero;stroke:none;font-family:Helvetica;font-variant:normal;font-weight:normal;font-size:15.8738;writing-mode:lr;-inkscape-font-specification:Helvetica"
             x="0 7.9369"
             y="0"
             sodipodi:role="line"
             id="tspan5945">vs</tspan></text>
</g><path
         d="m 7572.29,7.08594 542.117,0 0,542.117 -542.117,0 0,-542.117 z"
         style="fill:#ffffff;fill-opacity:1;fill-rule:nonzero;stroke:none"
         id="path5947" /><path
         d="m 7572.29,549.203 0,0 0,0"
         style="fill:#ffffff;fill-opacity:1;fill-rule:nonzero;stroke:none"
         id="path5949" /><path
         d="m 8114.4,549.203 0,0 0,0"
         style="fill:#ffffff;fill-opacity:1;fill-rule:nonzero;stroke:none"
         id="path5951" /><path
         d="m 7572.29,7.08594 542.117,0 0,542.117 -542.117,0 0,-542.117 z"
         style="fill:#ffffff;fill-opacity:1;fill-rule:nonzero;stroke:none"
         id="path5953" /><path
         d="m 7572.29,7.08594 0,0 0,0"
         style="fill:#ffffff;fill-opacity:1;fill-rule:nonzero;stroke:none"
         id="path5955" /><path
         d="m 8114.4,7.08594 0,0 0,0"
         style="fill:#ffffff;fill-opacity:1;fill-rule:nonzero;stroke:none"
         id="path5957" /><path
         d="m 7572.29,549.203 542.11,0"
         style="fill:none;stroke:#000000;stroke-opacity:1;stroke-width:14.173;stroke-linecap:butt;stroke-linejoin:miter;stroke-miterlimit:10;stroke-dasharray:none"
         id="path5959" /><path
         d="m 7572.29,7.08594 542.11,0"
         style="fill:none;stroke:#000000;stroke-opacity:1;stroke-width:14.173;stroke-linecap:butt;stroke-linejoin:miter;stroke-miterlimit:10;stroke-dasharray:none"
         id="path5961" /><path
         d="m 7572.29,549.203 0,0"
         style="fill:none;stroke:#000000;stroke-opacity:1;stroke-width:14.173;stroke-linecap:butt;stroke-linejoin:miter;stroke-miterlimit:10;stroke-dasharray:none"
         id="path5963" /><path
         d="m 8114.4,549.203 0,0"
         style="fill:none;stroke:#000000;stroke-opacity:1;stroke-width:14.173;stroke-linecap:butt;stroke-linejoin:miter;stroke-miterlimit:10;stroke-dasharray:none"
         id="path5965" /><path
         d="m 7572.29,549.203 0,-542.11706"
         style="fill:none;stroke:#000000;stroke-opacity:1;stroke-width:14.173;stroke-linecap:butt;stroke-linejoin:miter;stroke-miterlimit:10;stroke-dasharray:none"
         id="path5967" /><path
         d="m 8114.4,549.203 0,-542.11706"
         style="fill:none;stroke:#000000;stroke-opacity:1;stroke-width:14.173;stroke-linecap:butt;stroke-linejoin:miter;stroke-miterlimit:10;stroke-dasharray:none"
         id="path5969" /><path
         d="m 7572.29,7.08594 0,0"
         style="fill:none;stroke:#000000;stroke-opacity:1;stroke-width:14.173;stroke-linecap:butt;stroke-linejoin:miter;stroke-miterlimit:10;stroke-dasharray:none"
         id="path5971" /><path
         d="m 8114.4,7.08594 0,0"
         style="fill:none;stroke:#000000;stroke-opacity:1;stroke-width:14.173;stroke-linecap:butt;stroke-linejoin:miter;stroke-miterlimit:10;stroke-dasharray:none"
         id="path5973" /><g
         id="g5975"
         transform="scale(10,10)"><text
           transform="matrix(1,0,0,-1,767.241,19.3105)"
           id="text5977"><tspan
             style="fill:#000000;fill-opacity:1;fill-rule:nonzero;stroke:none;font-family:Helvetica;font-variant:normal;font-weight:normal;font-size:19.8422;writing-mode:lr;-inkscape-font-specification:Helvetica"
             x="0 13.2347474 24.2670106"
             y="0"
             sodipodi:role="line"
             id="tspan5979">Box</tspan></text>
</g><path
         d="m 7843.04,705.105 -0.3,151.454"
         style="fill:none;stroke:#000000;stroke-opacity:1;stroke-width:28.346;stroke-linecap:butt;stroke-linejoin:miter;stroke-miterlimit:10;stroke-dasharray:none"
         id="path5981" /><path
         d="m 7772.17,704.969 71.14,-141.594 70.59,141.871"
         style="fill:#000000;fill-opacity:1;fill-rule:evenodd;stroke:none"
         id="path5983" /><path
         d="m 7913.61,856.699 -71.15,141.59 -70.58,-141.867"
         style="fill:#000000;fill-opacity:1;fill-rule:evenodd;stroke:none"
         id="path5985" /><g
         id="g5987"
         transform="scale(10,10)"><text
           transform="matrix(1,0,0,-1,791.354,73.1129)"
           id="text5989"><tspan
             style="fill:#000000;fill-opacity:1;fill-rule:nonzero;stroke:none;font-family:Helvetica;font-variant:normal;font-weight:normal;font-size:15.8738;writing-mode:lr;-inkscape-font-specification:Helvetica"
             x="0 7.9369"
             y="0"
             sodipodi:role="line"
             id="tspan5991">vs</tspan></text>
</g></g></g></svg>