<?xml version="1.0" encoding="UTF-8" standalone="no"?>
<!-- Created with Inkscape (http://www.inkscape.org/) -->

<svg
   xmlns:dc="http://purl.org/dc/elements/1.1/"
   xmlns:cc="http://creativecommons.org/ns#"
   xmlns:rdf="http://www.w3.org/1999/02/22-rdf-syntax-ns#"
   xmlns:svg="http://www.w3.org/2000/svg"
   xmlns="http://www.w3.org/2000/svg"
   version="1.1"
   width="906.25"
   height="92.5"
   id="svg2985"
   xml:space="preserve"><metadata
     id="metadata2991"><rdf:RDF><cc:Work
         rdf:about=""><dc:format>image/svg+xml</dc:format><dc:type
           rdf:resource="http://purl.org/dc/dcmitype/StillImage" /><dc:title></dc:title></cc:Work></rdf:RDF></metadata><defs
     id="defs2989" /><g
     transform="matrix(1.25,0,0,-1.25,0,92.5)"
     id="g2993"><g
       transform="scale(0.1,0.1)"
       id="g2995"><path
         d="m 1786.55,75.4727 542.117,0 0,542.117 -542.117,0 0,-542.117 z"
         id="path2997"
         style="fill:#ffffff;fill-opacity:1;fill-rule:nonzero;stroke:none" /><path
         d="m 1786.55,617.59 0,0 0,0"
         id="path2999"
         style="fill:#ffffff;fill-opacity:1;fill-rule:nonzero;stroke:none" /><path
         d="m 2328.67,617.59 0,0 0,0"
         id="path3001"
         style="fill:#ffffff;fill-opacity:1;fill-rule:nonzero;stroke:none" /><path
         d="m 1786.55,75.4727 542.117,0 0,542.117 -542.117,0 0,-542.117 z"
         id="path3003"
         style="fill:#ffffff;fill-opacity:1;fill-rule:nonzero;stroke:none" /><path
         d="m 1786.55,75.4727 0,0 0,0"
         id="path3005"
         style="fill:#ffffff;fill-opacity:1;fill-rule:nonzero;stroke:none" /><path
         d="m 2328.67,75.4727 0,0 0,0"
         id="path3007"
         style="fill:#ffffff;fill-opacity:1;fill-rule:nonzero;stroke:none" /><path
         d="m 1786.55,617.59 542.12,0"
         id="path3009"
         style="fill:none;stroke:#000000;stroke-width:14.17300034;stroke-linecap:butt;stroke-linejoin:miter;stroke-miterlimit:10;stroke-opacity:1;stroke-dasharray:none" /><path
         d="m 1786.55,75.4727 542.12,0"
         id="path3011"
         style="fill:none;stroke:#000000;stroke-width:14.17300034;stroke-linecap:butt;stroke-linejoin:miter;stroke-miterlimit:10;stroke-opacity:1;stroke-dasharray:none" /><path
         d="m 1786.55,617.59 0,0"
         id="path3013"
         style="fill:none;stroke:#000000;stroke-width:14.17300034;stroke-linecap:butt;stroke-linejoin:miter;stroke-miterlimit:10;stroke-opacity:1;stroke-dasharray:none" /><path
         d="m 2328.67,617.59 0,0"
         id="path3015"
         style="fill:none;stroke:#000000;stroke-width:14.17300034;stroke-linecap:butt;stroke-linejoin:miter;stroke-miterlimit:10;stroke-opacity:1;stroke-dasharray:none" /><path
         d="m 1786.55,617.59 0,-542.1173"
         id="path3017"
         style="fill:none;stroke:#000000;stroke-width:14.17300034;stroke-linecap:butt;stroke-linejoin:miter;stroke-miterlimit:10;stroke-opacity:1;stroke-dasharray:none" /><path
         d="m 2328.67,617.59 0,-542.1173"
         id="path3019"
         style="fill:none;stroke:#000000;stroke-width:14.17300034;stroke-linecap:butt;stroke-linejoin:miter;stroke-miterlimit:10;stroke-opacity:1;stroke-dasharray:none" /><path
         d="m 1786.55,75.4727 0,0"
         id="path3021"
         style="fill:none;stroke:#000000;stroke-width:14.17300034;stroke-linecap:butt;stroke-linejoin:miter;stroke-miterlimit:10;stroke-opacity:1;stroke-dasharray:none" /><path
         d="m 2328.67,75.4727 0,0"
         id="path3023"
         style="fill:none;stroke:#000000;stroke-width:14.17300034;stroke-linecap:butt;stroke-linejoin:miter;stroke-miterlimit:10;stroke-opacity:1;stroke-dasharray:none" /><g
         transform="scale(10,10)"
         id="g3025"><text
           transform="matrix(1,0,0,-1,188.667,26.1492)"
           id="text3027"><tspan
             x="0 13.234747 24.26701"
             y="0"
             id="tspan3029"
             style="font-size:19.84219933px;font-variant:normal;font-weight:normal;writing-mode:lr-tb;fill:#000000;fill-opacity:1;fill-rule:nonzero;stroke:none;font-family:Helvetica;-inkscape-font-specification:Helvetica">Box</tspan></text>
</g><path
         d="m 2411.58,76.1797 542.117,0 0,542.117 -542.117,0 0,-542.117 z"
         id="path3031"
         style="fill:#ffffff;fill-opacity:1;fill-rule:nonzero;stroke:none" /><path
         d="m 2411.58,618.297 0,0 0,0"
         id="path3033"
         style="fill:#ffffff;fill-opacity:1;fill-rule:nonzero;stroke:none" /><path
         d="m 2953.7,618.297 0,0 0,0"
         id="path3035"
         style="fill:#ffffff;fill-opacity:1;fill-rule:nonzero;stroke:none" /><path
         d="m 2411.58,76.1797 542.117,0 0,542.117 -542.117,0 0,-542.117 z"
         id="path3037"
         style="fill:#ffffff;fill-opacity:1;fill-rule:nonzero;stroke:none" /><path
         d="m 2411.58,76.1797 0,0 0,0"
         id="path3039"
         style="fill:#ffffff;fill-opacity:1;fill-rule:nonzero;stroke:none" /><path
         d="m 2953.7,76.1797 0,0 0,0"
         id="path3041"
         style="fill:#ffffff;fill-opacity:1;fill-rule:nonzero;stroke:none" /><path
         d="m 2411.58,618.297 542.12,0"
         id="path3043"
         style="fill:none;stroke:#000000;stroke-width:14.17300034;stroke-linecap:butt;stroke-linejoin:miter;stroke-miterlimit:10;stroke-opacity:1;stroke-dasharray:none" /><path
         d="m 2411.58,76.1797 542.12,0"
         id="path3045"
         style="fill:none;stroke:#000000;stroke-width:14.17300034;stroke-linecap:butt;stroke-linejoin:miter;stroke-miterlimit:10;stroke-opacity:1;stroke-dasharray:none" /><path
         d="m 2411.58,618.297 0,0"
         id="path3047"
         style="fill:none;stroke:#000000;stroke-width:14.17300034;stroke-linecap:butt;stroke-linejoin:miter;stroke-miterlimit:10;stroke-opacity:1;stroke-dasharray:none" /><path
         d="m 2953.7,618.297 0,0"
         id="path3049"
         style="fill:none;stroke:#000000;stroke-width:14.17300034;stroke-linecap:butt;stroke-linejoin:miter;stroke-miterlimit:10;stroke-opacity:1;stroke-dasharray:none" /><path
         d="m 2411.58,618.297 0,-542.1173"
         id="path3051"
         style="fill:none;stroke:#000000;stroke-width:14.17300034;stroke-linecap:butt;stroke-linejoin:miter;stroke-miterlimit:10;stroke-opacity:1;stroke-dasharray:none" /><path
         d="m 2953.7,618.297 0,-542.1173"
         id="path3053"
         style="fill:none;stroke:#000000;stroke-width:14.17300034;stroke-linecap:butt;stroke-linejoin:miter;stroke-miterlimit:10;stroke-opacity:1;stroke-dasharray:none" /><path
         d="m 2411.58,76.1797 0,0"
         id="path3055"
         style="fill:none;stroke:#000000;stroke-width:14.17300034;stroke-linecap:butt;stroke-linejoin:miter;stroke-miterlimit:10;stroke-opacity:1;stroke-dasharray:none" /><path
         d="m 2953.7,76.1797 0,0"
         id="path3057"
         style="fill:none;stroke:#000000;stroke-width:14.17300034;stroke-linecap:butt;stroke-linejoin:miter;stroke-miterlimit:10;stroke-opacity:1;stroke-dasharray:none" /><g
         transform="scale(10,10)"
         id="g3059"><text
           transform="matrix(1,0,0,-1,251.17,26.2199)"
           id="text3061"><tspan
             x="0 13.234747 24.26701"
             y="0"
             id="tspan3063"
             style="font-size:19.84219933px;font-variant:normal;font-weight:normal;writing-mode:lr-tb;fill:#000000;fill-opacity:1;fill-rule:nonzero;stroke:none;font-family:Helvetica;-inkscape-font-specification:Helvetica">Box</tspan></text>
</g><path
         d="m 3035.2,76.1797 542.117,0 0,542.117 -542.117,0 0,-542.117 z"
         id="path3065"
         style="fill:#ffffff;fill-opacity:1;fill-rule:nonzero;stroke:none" /><path
         d="m 3035.2,618.297 0,0 0,0"
         id="path3067"
         style="fill:#ffffff;fill-opacity:1;fill-rule:nonzero;stroke:none" /><path
         d="m 3577.31,618.297 0,0 0,0"
         id="path3069"
         style="fill:#ffffff;fill-opacity:1;fill-rule:nonzero;stroke:none" /><path
         d="m 3035.2,76.1797 542.117,0 0,542.117 -542.117,0 0,-542.117 z"
         id="path3071"
         style="fill:#ffffff;fill-opacity:1;fill-rule:nonzero;stroke:none" /><path
         d="m 3035.2,76.1797 0,0 0,0"
         id="path3073"
         style="fill:#ffffff;fill-opacity:1;fill-rule:nonzero;stroke:none" /><path
         d="m 3577.31,76.1797 0,0 0,0"
         id="path3075"
         style="fill:#ffffff;fill-opacity:1;fill-rule:nonzero;stroke:none" /><path
         d="m 3035.2,618.297 542.11,0"
         id="path3077"
         style="fill:none;stroke:#000000;stroke-width:14.17300034;stroke-linecap:butt;stroke-linejoin:miter;stroke-miterlimit:10;stroke-opacity:1;stroke-dasharray:none" /><path
         d="m 3035.2,76.1797 542.11,0"
         id="path3079"
         style="fill:none;stroke:#000000;stroke-width:14.17300034;stroke-linecap:butt;stroke-linejoin:miter;stroke-miterlimit:10;stroke-opacity:1;stroke-dasharray:none" /><path
         d="m 3035.2,618.297 0,0"
         id="path3081"
         style="fill:none;stroke:#000000;stroke-width:14.17300034;stroke-linecap:butt;stroke-linejoin:miter;stroke-miterlimit:10;stroke-opacity:1;stroke-dasharray:none" /><path
         d="m 3577.31,618.297 0,0"
         id="path3083"
         style="fill:none;stroke:#000000;stroke-width:14.17300034;stroke-linecap:butt;stroke-linejoin:miter;stroke-miterlimit:10;stroke-opacity:1;stroke-dasharray:none" /><path
         d="m 3035.2,618.297 0,-542.1173"
         id="path3085"
         style="fill:none;stroke:#000000;stroke-width:14.17300034;stroke-linecap:butt;stroke-linejoin:miter;stroke-miterlimit:10;stroke-opacity:1;stroke-dasharray:none" /><path
         d="m 3577.31,618.297 0,-542.1173"
         id="path3087"
         style="fill:none;stroke:#000000;stroke-width:14.17300034;stroke-linecap:butt;stroke-linejoin:miter;stroke-miterlimit:10;stroke-opacity:1;stroke-dasharray:none" /><path
         d="m 3035.2,76.1797 0,0"
         id="path3089"
         style="fill:none;stroke:#000000;stroke-width:14.17300034;stroke-linecap:butt;stroke-linejoin:miter;stroke-miterlimit:10;stroke-opacity:1;stroke-dasharray:none" /><path
         d="m 3577.31,76.1797 0,0"
         id="path3091"
         style="fill:none;stroke:#000000;stroke-width:14.17300034;stroke-linecap:butt;stroke-linejoin:miter;stroke-miterlimit:10;stroke-opacity:1;stroke-dasharray:none" /><g
         transform="scale(10,10)"
         id="g3093"><text
           transform="matrix(1,0,0,-1,313.532,26.2199)"
           id="text3095"><tspan
             x="0 13.234747 24.26701"
             y="0"
             id="tspan3097"
             style="font-size:19.84219933px;font-variant:normal;font-weight:normal;writing-mode:lr-tb;fill:#000000;fill-opacity:1;fill-rule:nonzero;stroke:none;font-family:Helvetica;-inkscape-font-specification:Helvetica">Box</tspan></text>
<text
           transform="matrix(1,0,0,-1,368.0961,24.23592)"
           id="text3099"><tspan
             x="0 11.032263 -345.76401 -317.11188 -306.07959 -284.01508 -264.17288 -240.99718 -221.15498 -210.12273"
             y="0"
             id="tspan3101"
             style="font-size:39.68439865px;font-variant:normal;font-weight:normal;writing-mode:lr-tb;fill:#000000;fill-opacity:1;fill-rule:nonzero;stroke:none;font-family:Helvetica;-inkscape-font-specification:Helvetica">] H hs=x [</tspan><tspan
             x="26.372999"
             y="1.41758"
             id="tspan3103"
             style="font-size:39.68439865px;font-variant:normal;font-weight:normal;writing-mode:lr-tb;fill:#000000;fill-opacity:1;fill-rule:nonzero;stroke:none;font-family:Helvetica;-inkscape-font-specification:Helvetica">=</tspan></text>
</g><path
         d="m 4349.09,76.1797 542.117,0 0,542.117 -542.117,0 0,-542.117 z"
         id="path3105"
         style="fill:#ffffff;fill-opacity:1;fill-rule:nonzero;stroke:none" /><path
         d="m 4349.09,618.297 0,0 0,0"
         id="path3107"
         style="fill:#ffffff;fill-opacity:1;fill-rule:nonzero;stroke:none" /><path
         d="m 4891.2,618.297 0,0 0,0"
         id="path3109"
         style="fill:#ffffff;fill-opacity:1;fill-rule:nonzero;stroke:none" /><path
         d="m 4349.09,76.1797 542.117,0 0,542.117 -542.117,0 0,-542.117 z"
         id="path3111"
         style="fill:#ffffff;fill-opacity:1;fill-rule:nonzero;stroke:none" /><path
         d="m 4349.09,76.1797 0,0 0,0"
         id="path3113"
         style="fill:#ffffff;fill-opacity:1;fill-rule:nonzero;stroke:none" /><path
         d="m 4891.2,76.1797 0,0 0,0"
         id="path3115"
         style="fill:#ffffff;fill-opacity:1;fill-rule:nonzero;stroke:none" /><path
         d="m 4349.09,618.297 542.11,0"
         id="path3117"
         style="fill:none;stroke:#000000;stroke-width:14.17300034;stroke-linecap:butt;stroke-linejoin:miter;stroke-miterlimit:10;stroke-opacity:1;stroke-dasharray:none" /><path
         d="m 4349.09,76.1797 542.11,0"
         id="path3119"
         style="fill:none;stroke:#000000;stroke-width:14.17300034;stroke-linecap:butt;stroke-linejoin:miter;stroke-miterlimit:10;stroke-opacity:1;stroke-dasharray:none" /><path
         d="m 4349.09,618.297 0,0"
         id="path3121"
         style="fill:none;stroke:#000000;stroke-width:14.17300034;stroke-linecap:butt;stroke-linejoin:miter;stroke-miterlimit:10;stroke-opacity:1;stroke-dasharray:none" /><path
         d="m 4891.2,618.297 0,0"
         id="path3123"
         style="fill:none;stroke:#000000;stroke-width:14.17300034;stroke-linecap:butt;stroke-linejoin:miter;stroke-miterlimit:10;stroke-opacity:1;stroke-dasharray:none" /><path
         d="m 4349.09,618.297 0,-542.1173"
         id="path3125"
         style="fill:none;stroke:#000000;stroke-width:14.17300034;stroke-linecap:butt;stroke-linejoin:miter;stroke-miterlimit:10;stroke-opacity:1;stroke-dasharray:none" /><path
         d="m 4891.2,618.297 0,-542.1173"
         id="path3127"
         style="fill:none;stroke:#000000;stroke-width:14.17300034;stroke-linecap:butt;stroke-linejoin:miter;stroke-miterlimit:10;stroke-opacity:1;stroke-dasharray:none" /><path
         d="m 4349.09,76.1797 0,0"
         id="path3129"
         style="fill:none;stroke:#000000;stroke-width:14.17300034;stroke-linecap:butt;stroke-linejoin:miter;stroke-miterlimit:10;stroke-opacity:1;stroke-dasharray:none" /><path
         d="m 4891.2,76.1797 0,0"
         id="path3131"
         style="fill:none;stroke:#000000;stroke-width:14.17300034;stroke-linecap:butt;stroke-linejoin:miter;stroke-miterlimit:10;stroke-opacity:1;stroke-dasharray:none" /><g
         transform="scale(10,10)"
         id="g3133"><text
           transform="matrix(1,0,0,-1,444.921,26.2199)"
           id="text3135"><tspan
             x="0 13.234747 24.26701"
             y="0"
             id="tspan3137"
             style="font-size:19.84219933px;font-variant:normal;font-weight:normal;writing-mode:lr-tb;fill:#000000;fill-opacity:1;fill-rule:nonzero;stroke:none;font-family:Helvetica;-inkscape-font-specification:Helvetica">Box</tspan></text>
</g><path
         d="m 5519.78,76.8867 542.117,0 0,542.121 -542.117,0 0,-542.121 z"
         id="path3139"
         style="fill:#ffffff;fill-opacity:1;fill-rule:nonzero;stroke:none" /><path
         d="m 5519.78,619.008 0,0 0,0"
         id="path3141"
         style="fill:#ffffff;fill-opacity:1;fill-rule:nonzero;stroke:none" /><path
         d="m 6061.89,619.008 0,0 0,0"
         id="path3143"
         style="fill:#ffffff;fill-opacity:1;fill-rule:nonzero;stroke:none" /><path
         d="m 5519.78,76.8867 542.117,0 0,542.121 -542.117,0 0,-542.121 z"
         id="path3145"
         style="fill:#ffffff;fill-opacity:1;fill-rule:nonzero;stroke:none" /><path
         d="m 5519.78,76.8867 0,0 0,0"
         id="path3147"
         style="fill:#ffffff;fill-opacity:1;fill-rule:nonzero;stroke:none" /><path
         d="m 6061.89,76.8867 0,0 0,0"
         id="path3149"
         style="fill:#ffffff;fill-opacity:1;fill-rule:nonzero;stroke:none" /><path
         d="m 5519.78,619.008 542.11,0"
         id="path3151"
         style="fill:none;stroke:#000000;stroke-width:14.17300034;stroke-linecap:butt;stroke-linejoin:miter;stroke-miterlimit:10;stroke-opacity:1;stroke-dasharray:none" /><path
         d="m 5519.78,76.8867 542.11,0"
         id="path3153"
         style="fill:none;stroke:#000000;stroke-width:14.17300034;stroke-linecap:butt;stroke-linejoin:miter;stroke-miterlimit:10;stroke-opacity:1;stroke-dasharray:none" /><path
         d="m 5519.78,619.008 0,0"
         id="path3155"
         style="fill:none;stroke:#000000;stroke-width:14.17300034;stroke-linecap:butt;stroke-linejoin:miter;stroke-miterlimit:10;stroke-opacity:1;stroke-dasharray:none" /><path
         d="m 6061.89,619.008 0,0"
         id="path3157"
         style="fill:none;stroke:#000000;stroke-width:14.17300034;stroke-linecap:butt;stroke-linejoin:miter;stroke-miterlimit:10;stroke-opacity:1;stroke-dasharray:none" /><path
         d="m 5519.78,619.008 0,-542.1213"
         id="path3159"
         style="fill:none;stroke:#000000;stroke-width:14.17300034;stroke-linecap:butt;stroke-linejoin:miter;stroke-miterlimit:10;stroke-opacity:1;stroke-dasharray:none" /><path
         d="m 6061.89,619.008 0,-542.1213"
         id="path3161"
         style="fill:none;stroke:#000000;stroke-width:14.17300034;stroke-linecap:butt;stroke-linejoin:miter;stroke-miterlimit:10;stroke-opacity:1;stroke-dasharray:none" /><path
         d="m 5519.78,76.8867 0,0"
         id="path3163"
         style="fill:none;stroke:#000000;stroke-width:14.17300034;stroke-linecap:butt;stroke-linejoin:miter;stroke-miterlimit:10;stroke-opacity:1;stroke-dasharray:none" /><path
         d="m 6061.89,76.8867 0,0"
         id="path3165"
         style="fill:none;stroke:#000000;stroke-width:14.17300034;stroke-linecap:butt;stroke-linejoin:miter;stroke-miterlimit:10;stroke-opacity:1;stroke-dasharray:none" /><g
         transform="scale(10,10)"
         id="g3167"><text
           transform="matrix(1,0,0,-1,561.99,26.291)"
           id="text3169"><tspan
             x="0 13.234747 24.26701"
             y="0"
             id="tspan3171"
             style="font-size:19.84219933px;font-variant:normal;font-weight:normal;writing-mode:lr-tb;fill:#000000;fill-opacity:1;fill-rule:nonzero;stroke:none;font-family:Helvetica;-inkscape-font-specification:Helvetica">Box</tspan></text>
</g><path
         d="m 5047.11,347.414 316.77,0.359"
         id="path3173"
         style="fill:none;stroke:#000000;stroke-width:28.34600067;stroke-linecap:butt;stroke-linejoin:miter;stroke-miterlimit:10;stroke-opacity:1;stroke-dasharray:none" /><path
         d="m 5047.03,418.281 -141.65,-71.027 141.81,-70.703"
         id="path3175"
         style="fill:#000000;fill-opacity:1;fill-rule:evenodd;stroke:none" /><path
         d="m 5363.95,276.906 141.66,71.024 -141.82,70.707"
         id="path3177"
         style="fill:#000000;fill-opacity:1;fill-rule:evenodd;stroke:none" /><g
         transform="scale(10,10)"
         id="g3179"><text
           transform="matrix(1,0,0,-1,512.477,39.7906)"
           id="text3181"><tspan
             x="0 8.8258324"
             y="0"
             id="tspan3183"
             style="font-size:15.87380028px;font-variant:normal;font-weight:normal;writing-mode:lr-tb;fill:#000000;fill-opacity:1;fill-rule:nonzero;stroke:none;font-family:Helvetica;-inkscape-font-specification:Helvetica">hs</tspan></text>
</g><path
         d="m 6693.3,76.8867 542.117,0 0,542.121 -542.117,0 0,-542.121 z"
         id="path3185"
         style="fill:#ffffff;fill-opacity:1;fill-rule:nonzero;stroke:none" /><path
         d="m 6693.3,619.008 0,0 0,0"
         id="path3187"
         style="fill:#ffffff;fill-opacity:1;fill-rule:nonzero;stroke:none" /><path
         d="m 7235.42,619.008 0,0 0,0"
         id="path3189"
         style="fill:#ffffff;fill-opacity:1;fill-rule:nonzero;stroke:none" /><path
         d="m 6693.3,76.8867 542.117,0 0,542.121 -542.117,0 0,-542.121 z"
         id="path3191"
         style="fill:#ffffff;fill-opacity:1;fill-rule:nonzero;stroke:none" /><path
         d="m 6693.3,76.8867 0,0 0,0"
         id="path3193"
         style="fill:#ffffff;fill-opacity:1;fill-rule:nonzero;stroke:none" /><path
         d="m 7235.42,76.8867 0,0 0,0"
         id="path3195"
         style="fill:#ffffff;fill-opacity:1;fill-rule:nonzero;stroke:none" /><path
         d="m 6693.3,619.008 542.12,0"
         id="path3197"
         style="fill:none;stroke:#000000;stroke-width:14.17300034;stroke-linecap:butt;stroke-linejoin:miter;stroke-miterlimit:10;stroke-opacity:1;stroke-dasharray:none" /><path
         d="m 6693.3,76.8867 542.12,0"
         id="path3199"
         style="fill:none;stroke:#000000;stroke-width:14.17300034;stroke-linecap:butt;stroke-linejoin:miter;stroke-miterlimit:10;stroke-opacity:1;stroke-dasharray:none" /><path
         d="m 6693.3,619.008 0,0"
         id="path3201"
         style="fill:none;stroke:#000000;stroke-width:14.17300034;stroke-linecap:butt;stroke-linejoin:miter;stroke-miterlimit:10;stroke-opacity:1;stroke-dasharray:none" /><path
         d="m 7235.42,619.008 0,0"
         id="path3203"
         style="fill:none;stroke:#000000;stroke-width:14.17300034;stroke-linecap:butt;stroke-linejoin:miter;stroke-miterlimit:10;stroke-opacity:1;stroke-dasharray:none" /><path
         d="m 6693.3,619.008 0,-542.1213"
         id="path3205"
         style="fill:none;stroke:#000000;stroke-width:14.17300034;stroke-linecap:butt;stroke-linejoin:miter;stroke-miterlimit:10;stroke-opacity:1;stroke-dasharray:none" /><path
         d="m 7235.42,619.008 0,-542.1213"
         id="path3207"
         style="fill:none;stroke:#000000;stroke-width:14.17300034;stroke-linecap:butt;stroke-linejoin:miter;stroke-miterlimit:10;stroke-opacity:1;stroke-dasharray:none" /><path
         d="m 6693.3,76.8867 0,0"
         id="path3209"
         style="fill:none;stroke:#000000;stroke-width:14.17300034;stroke-linecap:butt;stroke-linejoin:miter;stroke-miterlimit:10;stroke-opacity:1;stroke-dasharray:none" /><path
         d="m 7235.42,76.8867 0,0"
         id="path3211"
         style="fill:none;stroke:#000000;stroke-width:14.17300034;stroke-linecap:butt;stroke-linejoin:miter;stroke-miterlimit:10;stroke-opacity:1;stroke-dasharray:none" /><g
         transform="scale(10,10)"
         id="g3213"><text
           transform="matrix(1,0,0,-1,679.342,26.291)"
           id="text3215"><tspan
             x="0 13.234747 24.26701"
             y="0"
             id="tspan3217"
             style="font-size:19.84219933px;font-variant:normal;font-weight:normal;writing-mode:lr-tb;fill:#000000;fill-opacity:1;fill-rule:nonzero;stroke:none;font-family:Helvetica;-inkscape-font-specification:Helvetica">Box</tspan></text>
</g><path
         d="m 6217.8,347.949 319.6,0"
         id="path3219"
         style="fill:none;stroke:#000000;stroke-width:28.34600067;stroke-linecap:butt;stroke-linejoin:miter;stroke-miterlimit:10;stroke-opacity:1;stroke-dasharray:none" /><path
         d="M 6217.8,418.813 6076.07,347.949 6217.8,277.082"
         id="path3221"
         style="fill:#000000;fill-opacity:1;fill-rule:evenodd;stroke:none" /><path
         d="m 6537.4,277.082 141.73,70.867 -141.73,70.864"
         id="path3223"
         style="fill:#000000;fill-opacity:1;fill-rule:evenodd;stroke:none" /><g
         transform="scale(10,10)"
         id="g3225"><text
           transform="matrix(1,0,0,-1,630.113,39.7906)"
           id="text3227"><tspan
             x="0 8.8258324"
             y="0"
             id="tspan3229"
             style="font-size:15.87380028px;font-variant:normal;font-weight:normal;writing-mode:lr-tb;fill:#000000;fill-opacity:1;fill-rule:nonzero;stroke:none;font-family:Helvetica;-inkscape-font-specification:Helvetica">hs</tspan></text>
</g></g></g></svg>